<?xml version="1.0" encoding="utf-8"?>
<!-- Generator: Adobe Illustrator 21.0.2, SVG Export Plug-In . SVG Version: 6.00 Build 0)  -->
<svg version="1.1" id="Layer_1" xmlns="http://www.w3.org/2000/svg" xmlns:xlink="http://www.w3.org/1999/xlink" x="0px" y="0px"
	 viewBox="0 0 54 57" style="enable-background:new 0 0 54 57;" xml:space="preserve">
<style type="text/css">
	.st0{fill:#FFFFFF;}
</style>
<g>
	<path class="st0" d="M26.537,46.786c-10.303,0-18.655-8.352-18.655-18.655S16.234,9.476,26.537,9.476s18.655,8.352,18.655,18.655
		C45.18,38.43,36.835,46.775,26.537,46.786z M26.537,11.135c-9.387,0-16.997,7.61-16.997,16.997s7.61,16.997,16.997,16.997
		s16.997-7.61,16.997-16.997S35.924,11.135,26.537,11.135z"/>
	<path class="st0" d="M22.52,35.225c-0.458,0-0.829-0.371-0.829-0.829V21.868c0-0.458,0.372-0.829,0.83-0.828
		c0.145,0,0.288,0.038,0.414,0.111l10.853,6.264c0.396,0.23,0.531,0.737,0.301,1.133c-0.072,0.125-0.176,0.229-0.301,0.301
		l-10.853,6.268C22.808,35.188,22.665,35.226,22.52,35.225z M23.349,23.302v9.659l8.366-4.83L23.349,23.302z"/>
</g>
<g>
</g>
<g>
</g>
<g>
</g>
<g>
</g>
<g>
</g>
<g>
</g>
<g>
</g>
<g>
</g>
<g>
</g>
<g>
</g>
<g>
</g>
<g>
</g>
<g>
</g>
<g>
</g>
<g>
</g>
</svg>
