<svg xmlns="http://www.w3.org/2000/svg" viewBox="0 0 208 68.2"><defs><style>.cls-1{fill:#fff}</style></defs><title>google</title><path id="path2998" class="cls-1" d="M51.14 24.08H26.87v7.2h17.21c-.85 10.1-9.25 14.41-17.18 14.41a18.93 18.93 0 0 1-19-19.17 19 19 0 0 1 19-19.3 18.68 18.68 0 0 1 13 5.21l5-5.22A25.64 25.64 0 0 0 26.66 0 26.89 26.89 0 0 0 0 26.39a26.81 26.81 0 0 0 27 26.52c14.16 0 24.53-9.7 24.53-24.05a21.59 21.59 0 0 0-.44-4.78z"/><path id="path3000" class="cls-1" d="M71 18.87a16.8 16.8 0 0 0-17.1 16.87 17.08 17.08 0 0 0 34.16.2c0-11.26-8.88-17.06-17.06-17.06zm.1 6.68c4.9 0 9.54 4 9.54 10.34S76 46.21 71.1 46.21c-5.43 0-9.71-4.35-9.71-10.37s4.23-10.29 9.73-10.29z"/><path id="path3005" class="cls-1" d="M108.2 18.87a16.8 16.8 0 0 0-17.1 16.87 17.08 17.08 0 0 0 34.16.2c0-11.26-8.88-17.06-17.06-17.06zm.1 6.68c4.9 0 9.54 4 9.54 10.34s-4.62 10.32-9.56 10.32c-5.43 0-9.71-4.35-9.71-10.37s4.23-10.29 9.73-10.29z"/><path id="path3007" class="cls-1" d="M144.67 18.89c-9.14 0-16.33 8-16.33 17 0 10.24 8.33 17 16.17 17a11.23 11.23 0 0 0 9.33-4.13v3.35c0 5.87-3.56 9.38-8.94 9.38a9.43 9.43 0 0 1-8.71-6.05l-6.54 2.73c2.32 4.9 7 10 15.3 10 9.09 0 16-5.72 16-17.73V19.91h-7.13v2.88a12 12 0 0 0-9.17-3.9zm.66 6.67c4.48 0 9.08 3.83 9.08 10.36s-4.59 10.3-9.18 10.3c-4.87 0-9.41-4-9.41-10.24 0-6.53 4.71-10.43 9.51-10.43z"/><path id="path3011" class="cls-1" d="M192.67 18.85c-8.62 0-15.86 6.86-15.86 17 0 10.71 8.07 17.06 16.69 17.06a17.25 17.25 0 0 0 14.25-7.46l-5.88-3.91a9.52 9.52 0 0 1-8.33 4.68c-4.78 0-7-2.62-8.34-5.15l22.8-9.48-1.18-2.77a15.4 15.4 0 0 0-14.14-10zm.3 6.54a6.78 6.78 0 0 1 6.29 3.61L184 35.38c-.66-4.93 4-10 8.94-10z"/><path id="path3015" class="cls-1" d="M165.94 51.88h7.49V1.76h-7.49v50.12z"/></svg>