<svg xmlns="http://www.w3.org/2000/svg" viewBox="0 0 208 44.42"><defs><style>.cls-1{fill:#fff}</style></defs><title>microsoft</title><path class="cls-1" d="M0 0h21.13v21.13H0V0zm23.29 0h21.13v21.13H23.29V0zm167.25 8.05a8.29 8.29 0 0 1 6.66-.78v3.92a4.36 4.36 0 0 0-3.37-.31 2.67 2.67 0 0 0-1.51 2.12 28.76 28.76 0 0 0-.09 3.42h6.69v-4.34c1.52-.43 3-.91 4.52-1.37v5.72h4.52v3.71c-1.51-.06-3 0-4.54 0v6.4c0 1.18-.06 2.37.07 3.55a2.3 2.3 0 0 0 1 1.82 3.4 3.4 0 0 0 3.47-.33v3.75a8.94 8.94 0 0 1-4.18.64 5.08 5.08 0 0 1-3.6-1.65 6.82 6.82 0 0 1-1.29-4.36v-9.82h-6.69v15.42h-4.57V20.15h-3.18v-3.66h3.17c.08-1.62-.17-3.29.31-4.87a6.23 6.23 0 0 1 2.58-3.52zm-97.84.27a2.79 2.79 0 0 1 2.53.9 2.61 2.61 0 0 1 .32 3 2.84 2.84 0 0 1-3 1.27 2.58 2.58 0 0 1-2.12-2.55 2.65 2.65 0 0 1 2.27-2.62zm-35.02.56h6.65q3.1 7.88 6.22 15.75c.53 1.31 1 2.64 1.58 3.95 2.66-6.56 5.36-13.11 8-19.68h6.39v26.65h-4.61V15a3.52 3.52 0 0 0-.24.43c-2.64 6.71-5.33 13.4-8 20.12h-3.28C67.68 28.83 65 22.1 62.28 15.39l-.23-.41c-.06 2.87 0 5.75 0 8.62v11.93h-4.37V8.88zm47.6 7.54a12.51 12.51 0 0 1 6.79 0 5.48 5.48 0 0 1 1.3.54v4.37a7.26 7.26 0 0 0-5.22-1.6 5.37 5.37 0 0 0-3.8 2.11 7.37 7.37 0 0 0-1.21 5.29 5.73 5.73 0 0 0 1.85 3.8 5.79 5.79 0 0 0 4.28 1.27 8.71 8.71 0 0 0 4.1-1.68v4.14a11.11 11.11 0 0 1-6.25 1.34 9.26 9.26 0 0 1-6-2.48 9.52 9.52 0 0 1-2.77-6.39 11.58 11.58 0 0 1 1.86-7.13 9.19 9.19 0 0 1 5.07-3.58zm49.92-.3a12.09 12.09 0 0 1 6.33.66v4.2a8.05 8.05 0 0 0-4.8-1.42 2.46 2.46 0 0 0-2.18 1.21 2 2 0 0 0 .66 2.34c1.3.87 2.84 1.23 4.18 2a6 6 0 0 1 2.61 2.5 5.57 5.57 0 0 1-1.18 6.39 8.74 8.74 0 0 1-6.36 2 13.59 13.59 0 0 1-4.65-1.07v-4.42a10 10 0 0 0 4.19 1.77 5.34 5.34 0 0 0 3.15-.29 1.83 1.83 0 0 0 .55-2.6 5.49 5.49 0 0 0-2-1.31 19.12 19.12 0 0 1-3.94-2 4.73 4.73 0 0 1-1.76-2.6 5.83 5.83 0 0 1 .63-4.56 6.8 6.8 0 0 1 4.55-2.79zm-31.61.61a5.15 5.15 0 0 1 4.24-.36v4.57a4.86 4.86 0 0 0-3.09-.73 3.79 3.79 0 0 0-2.86 2.29 8.45 8.45 0 0 0-.65 3.9v9.13h-4.51V16.44h4.51v3.28a5.85 5.85 0 0 1 2.36-3zm-32.79-.29h4.55v19.09H90.8V16.44zm55.97 4.45a8.08 8.08 0 0 0-4-4 12.13 12.13 0 0 0-6.54-.77 9.12 9.12 0 0 0-6 3.21 10.18 10.18 0 0 0-2.11 5.84 11 11 0 0 0 1.67 7.13 8.65 8.65 0 0 0 5.28 3.44 13.12 13.12 0 0 0 5.35 0 8.85 8.85 0 0 0 5.25-3.24 10.13 10.13 0 0 0 2-5.56 12.53 12.53 0 0 0-.9-6.05zm-4.41 8.77a4.17 4.17 0 0 1-2.24 2.21 6.16 6.16 0 0 1-3.72.16 4.56 4.56 0 0 1-2.86-2.36 8.81 8.81 0 0 1-.69-4.78 6.07 6.07 0 0 1 1.77-4 4.78 4.78 0 0 1 3-1.19 4.92 4.92 0 0 1 3.82 1.3 6.16 6.16 0 0 1 1.56 4 10 10 0 0 1-.64 4.66zm41.01-8.22a8.15 8.15 0 0 0-3.92-4.44 11.84 11.84 0 0 0-6.78-.92 9.46 9.46 0 0 0-5 2.17 9.36 9.36 0 0 0-3 5.87 12.65 12.65 0 0 0 .72 6.63 8.47 8.47 0 0 0 4.64 4.5 12.29 12.29 0 0 0 6.44.54 8.93 8.93 0 0 0 5.53-3.28 10.45 10.45 0 0 0 2.08-6.51 12.17 12.17 0 0 0-.71-4.56zm-4.12 6.47a6 6 0 0 1-1.18 2.8 4.28 4.28 0 0 1-2.67 1.44 6 6 0 0 1-3.27-.36 4.63 4.63 0 0 1-2.41-2.52 9.07 9.07 0 0 1-.54-4.16 6.6 6.6 0 0 1 1.38-3.8 4.68 4.68 0 0 1 3.34-1.6 5 5 0 0 1 3.66 1.08 5.24 5.24 0 0 1 1.65 3 11.6 11.6 0 0 1 .04 4.13zM0 23.29h21.13v21.13H0V23.29zm23.29 0h21.13v21.13H23.29V23.29z"/></svg>