<svg xmlns="http://www.w3.org/2000/svg" viewBox="0 0 208 45.37"><defs><style>.cls-1{fill:#fff}</style></defs><title>qualcomm</title><path class="cls-1" d="M84.65 27.79a2.11 2.11 0 0 0 1.85 1.85h12.65l-2.83-4.56H89V7.53h-4.35v20.26zm-46.43-8.68a19.11 19.11 0 1 0-19.11 19.11 18.89 18.89 0 0 0 3.26-.29v7.44h5.38v-9.25a19.1 19.1 0 0 0 10.47-17.01zM27.71 28v-6.12l-5.38 1.53V31a12.27 12.27 0 1 1 5.38-3zm28.14 1.64H43.36a2.12 2.12 0 0 1-1.86-1.84V7.53h4.34v17.54h7.52V7.53h4.34V27.8a2.11 2.11 0 0 1-1.85 1.84zm58.26-21.3a11.73 11.73 0 1 0-.3 20.42L111.69 25a7.31 7.31 0 0 1-3.51.89A7.38 7.38 0 1 1 112 12.13zm10.04-1.54a11.73 11.73 0 1 0 11.73 11.73A11.75 11.75 0 0 0 124.15 6.8zm0 19.11a7.38 7.38 0 1 1 7.39-7.38 7.35 7.35 0 0 1-7.39 7.38zM73.32 7.57H69l-9.68 22H64l2.27-4.84h10l.2.47 1.93 4.37H83zm-5.64 13.52l3.49-7.94 3.5 7.94h-7zm137.98 5.84l-7.95-18.34a3 3 0 0 0-4.89 0L187 22l-5.86-13.41a3 3 0 0 0-4.89 0l-5.84 13.47-5.83-13.47a3 3 0 0 0-4.89 0L153.85 22 148 8.59a3 3 0 0 0-4.89 0l-7.94 18.33a2.31 2.31 0 0 0 4.14 2l6.25-14.6L151.81 29a2.44 2.44 0 0 0 4.07 0l6.25-14.6 6.25 14.6a2.12 2.12 0 0 0 1.79 1.09h.5a2.12 2.12 0 0 0 1.79-1.09l6.25-14.6 6.24 14.6a2.44 2.44 0 0 0 4.05 0l6.25-14.6 6.26 14.6a2.32 2.32 0 0 0 4.15-2.07zm-.25-19.21a2.56 2.56 0 1 0 2.59 2.55 2.56 2.56 0 0 0-2.59-2.55zm0 4.7a2.07 2.07 0 0 1-2.09-2.14 2.08 2.08 0 1 1 4.17 0 2.07 2.07 0 0 1-2.08 2.14zm1.18-2.77a.83.83 0 0 0-1-.84h-1.12v3h.45v-1.33h.52l.78 1.28h.5l-.84-1.3a.77.77 0 0 0 .71-.82zm-1.72.45v-.92h.61c.31 0 .64.07.64.43s-.34.48-.72.48h-.54z"/></svg>