<svg xmlns="http://www.w3.org/2000/svg" viewBox="0 0 208 66.86"><defs><style>.cls-1{fill:#fff}</style></defs><title>baidu</title><ellipse class="cls-1" cx="94.55" cy="10.33" rx="7.26" ry="10.33"/><path class="cls-1" d="M81.06 35.23c7.27-1.56 6.28-10.26 6.06-12.16-.36-2.93-3.8-8-8.48-7.64-5.88.52-6.74 9-6.74 9-.79 3.97 1.91 12.37 9.16 10.8zm30.79-13.89c5.37.7 8.81-5 9.5-9.37s-2.77-9.38-6.56-10.24-8.57 5.22-9 9.2c-.52 4.87.7 9.72 6.06 10.41zm-23.07 29a6.13 6.13 0 0 0-.27 3.53A4 4 0 0 0 92 57.06h3.8v-9.3h-4.1a4.44 4.44 0 0 0-2.92 2.58zm44.34-21.71c0-2.08-1.72-8.33-8.12-8.33s-7.26 5.91-7.26 10.08c0 4 .33 9.54 8.3 9.36s7.08-9.02 7.08-11.11zM125 46.86s-8.3-6.42-13.14-13.36c-6.58-10.24-15.91-6.07-19-.87s-7.95 8.5-8.64 9.38-10 5.9-8 15.1l9.35 9a40.92 40.92 0 0 0 11.58-.87 24.39 24.39 0 0 1 11.59.34s14.53 4.87 18.5-4.5L125 46.86zm-24.87 14h-9.46a8.27 8.27 0 0 1-5.91-4.08A10.78 10.78 0 0 1 84 50.2a8.3 8.3 0 0 1 6.79-6.12h5V37.9l4.33.1v22.81zm17.6-.06h-10.88c-4.22-1.09-4.42-4.08-4.42-4.08v-12l4.42-.07v10.72a2.1 2.1 0 0 0 1.7 1.36H113V44.64h4.69v16.1zm51.78-24.06v-5.07h-33.39v5.14h14.35l-1.34 3.08h-12.25v25.44h29c3 0 2.76-3.06 2.76-3.06V39.89h-12.23l1.07-3.15h12zM163 59.9a1.37 1.37 0 0 1-.85.85h-19.22v-5.94H163v5.09zm0-10h-20.07v-5.55H163v5.56zm44.66-18.09h-13.1v-2.57h-6.14v2.44h-15v33.6h5.41V36h28.87v-4.19zm-3.53 7v-1.99h-5.28v1.94H188v-1.88h-5v1.88h-3.4l.07 3.8H183v7.15h18.28c2.54 0 2.87-2.67 2.87-2.67v-4.48H208v-3.8h-3.87zm-5.28 6.41a1.65 1.65 0 0 1-1.07.87h-9.85v-3.6h10.92v2.67zm-18.51 9.76l8.41 4.88c-.67.73-3.54 1.66-3.54 1.66h-5.61v3.75h7.62a36.89 36.89 0 0 0 6.48-2.6c1.74 1.6 5.09 2.26 5.09 2.26h8.68v-3.79h-6.54a9.89 9.89 0 0 1-3.35-1.27l9.89-5.68v-3.08h-27.13v3.81zm17.51-.06L193 57.4l-4.41-2.54h9.22zM61.82 37.16h7.29v-6.42h-7.29v6.42zm0 28h7.29V40h-7.29v25.14zM50 40H34.45v5.3h13.6s3.25.7 3.25 2.79V50H39s-4.85.45-6.41 6.24a10.44 10.44 0 0 0 .27 4.54 7.64 7.64 0 0 0 5.83 4.49H58.3v-18S57.36 41 50 40m1.3 20.25h-9.93a3.28 3.28 0 0 1-1.87-1.65 2.35 2.35 0 0 1 0-1.82 3.77 3.77 0 0 1 2.14-1.91h9.66v5.39zm-20.35-3.94a8.67 8.67 0 0 0-5.29-8.25c4.66-2.44 4.07-8.58 4.07-8.58-.5-9.4-12-9-12-9H0v35h20c11.76 0 10.92-9.23 10.92-9.23M19.63 59h-12v-7.51h11.94l.43.08A4.42 4.42 0 0 1 23.07 54a4.49 4.49 0 0 1-.55 3.35A4 4 0 0 1 19.63 59m2.54-16.24a4.06 4.06 0 0 1-2.95 1.8H7.63v-7.21h11.55s2.51-.12 3.34 1.88a5.66 5.66 0 0 1-.34 3.57"/></svg>